<?xml version="1.0" standalone="no"?>
<!DOCTYPE svg PUBLIC "-//W3C//DTD SVG 20010904//EN"
 "http://www.w3.org/TR/2001/REC-SVG-20010904/DTD/svg10.dtd">
<svg version="1.0" xmlns="http://www.w3.org/2000/svg"
 width="1024.000000pt" height="1024.000000pt" viewBox="0 0 1024.000000 1024.000000"
 preserveAspectRatio="xMidYMid meet">
<metadata>
Created by potrace 1.11, written by Peter Selinger 2001-2013
</metadata>
<g transform="translate(0.000000,1024.000000) scale(0.100000,-0.100000)"
fill="#000000" stroke="none">
<path d="M2099 10236 c-2 -2 -40 -6 -83 -10 -44 -4 -82 -8 -85 -10 -3 -2 -29
-6 -58 -10 -251 -30 -629 -175 -879 -338 -171 -113 -391 -307 -495 -436 -18
-24 -42 -54 -53 -65 -10 -12 -51 -71 -91 -132 -105 -157 -200 -351 -254 -523
-30 -94 -43 -141 -56 -212 -2 -14 -9 -49 -15 -79 -6 -30 -14 -84 -18 -120 -9
-85 -9 -6275 0 -6361 29 -258 116 -538 239 -767 29 -54 175 -282 188 -293 3
-3 30 -34 60 -70 225 -271 552 -507 886 -640 198 -79 434 -137 645 -158 97 -9
6104 -9 6190 0 178 20 339 55 504 110 794 265 1368 933 1493 1738 17 109 18
287 18 3270 0 2548 -3 3168 -13 3225 -7 39 -15 84 -18 100 -30 183 -124 446
-219 616 -19 33 -35 63 -35 66 0 15 -165 242 -235 324 -335 387 -826 661
-1335 743 -52 8 -111 18 -130 23 -34 7 -6143 17 -6151 9z"/>
</g>
</svg>
